<svg xmlns="http://www.w3.org/2000/svg" xmlns:xlink="http://www.w3.org/1999/xlink" viewBox="0 0 800 500"><defs><style>.cls-1{fill:#010101;}.cls-2{fill:url(#linear-gradient);}.cls-3{fill:url(#linear-gradient-2);}.cls-4{font-size:85px;font-family:Bauhaus93, Bauhaus 93;}.cls-4,.cls-5{fill:#231f20;}.cls-5{font-size:54px;font-family:FugazOne-Regular, Fugaz One;}</style><linearGradient id="linear-gradient" x1="257.75" y1="153.91" x2="375.19" y2="153.91" gradientUnits="userSpaceOnUse"><stop offset="0" stop-color="#008057"/><stop offset="0.16" stop-color="#008460"/><stop offset="0.44" stop-color="#008f7a"/><stop offset="0.79" stop-color="#00a0a3"/><stop offset="0.99" stop-color="#00acbf"/></linearGradient><linearGradient id="linear-gradient-2" x1="56.22" y1="192.04" x2="331.91" y2="192.04" gradientUnits="userSpaceOnUse"><stop offset="0" stop-color="#ee3665"/><stop offset="0.31" stop-color="#ee3f6e"/><stop offset="0.82" stop-color="#f05788"/><stop offset="0.99" stop-color="#f06192"/></linearGradient></defs><title>digital_peach_studio_bt_bci</title><g id="Layer_2" data-name="Layer 2"><path class="cls-1" d="M184.17,351.15c-40.45-.25-78.54-16.54-107.25-45.86S32.69,237.51,33.28,197A151,151,0,0,1,78.49,91.18c3.46-3.41,7.13-6.7,10.91-9.78l.13-.11.13-.12a151.21,151.21,0,0,1,103.77-41c14.19,0,30.6,1.16,44.75,9.76l1.19.75a15.51,15.51,0,0,0,8.56,2.56,15.84,15.84,0,0,0,5.19-.87,15.55,15.55,0,0,1,2.13-.57,113,113,0,0,1,20-2.06h1.43c39.44,0,74.85,16.17,97.14,44.35,13.71,17.34,22.52,42.56,23,65.83.79,38.52-17.18,74-46.88,92.69-2.64,1.65-16.41,10-29.75,12.72a10,10,0,0,0-6.7,3.21,123.19,123.19,0,0,1-9.16,9,6.84,6.84,0,0,0-1.81,7.71,14.32,14.32,0,0,1-3.3,15.72c-3.16,3.06-6.54,6.07-10.06,8.94L289,310l-.12.12a151.31,151.31,0,0,1-103.78,41Z"/><path class="cls-2" d="M276.1,63.77a98.19,98.19,0,0,0-17.53,1.8,1,1,0,0,0,0,2c13.13,2.7,26.77,8.66,34.89,14.48,35.11,25.18,49.44,55.61,49.44,105a116.86,116.86,0,0,1-14,55.55,1,1,0,0,0,1.35,1.26,97.74,97.74,0,0,0,44.93-82.44C375.12,107.22,330.34,63.09,276.1,63.77Z"/><path class="cls-3" d="M287.05,91c-11.6-8.32-34.81-16-47.48-13.4,0,0,2.73-9.11-8-15.65s-24-7.72-37.47-7.72A137.84,137.84,0,0,0,56.24,190c-1.11,75.85,61.07,139.42,136.94,139.89a137.34,137.34,0,0,0,96.93-39,.37.37,0,0,0-.47-.56,116.91,116.91,0,0,1-67.71,21.34c-63.08,0-114.22-49.09-114.22-109.64a106.42,106.42,0,0,1,24.57-67.93.25.25,0,0,1,.42.28,106.57,106.57,0,1,0,199.21,52.69C331.91,138.45,317.56,112.84,287.05,91Z"/></g><g id="Layer_1" data-name="Layer 1"><text class="cls-4" transform="translate(185 449.79)">DIGITAL PEACH</text><text class="cls-5" transform="translate(574 373.57)">Studio</text></g></svg>