<svg xmlns="http://www.w3.org/2000/svg" xmlns:xlink="http://www.w3.org/1999/xlink" viewBox="0 0 800 500"><defs><style>.cls-1{fill:#010101;}.cls-2{fill:url(#linear-gradient);}.cls-3{fill:url(#linear-gradient-2);}.cls-4{font-size:85px;fill:#231f20;font-family:Bauhaus93, Bauhaus 93;}</style><linearGradient id="linear-gradient" x1="261.15" y1="153.91" x2="378.6" y2="153.91" gradientUnits="userSpaceOnUse"><stop offset="0" stop-color="#008057"/><stop offset="0.16" stop-color="#008460"/><stop offset="0.44" stop-color="#008f7a"/><stop offset="0.79" stop-color="#00a0a3"/><stop offset="0.99" stop-color="#00acbf"/></linearGradient><linearGradient id="linear-gradient-2" x1="59.63" y1="192.04" x2="335.32" y2="192.04" gradientUnits="userSpaceOnUse"><stop offset="0" stop-color="#ee3665"/><stop offset="0.31" stop-color="#ee3f6e"/><stop offset="0.82" stop-color="#f05788"/><stop offset="0.99" stop-color="#f06192"/></linearGradient></defs><title>digtal_peach_bt_bci</title><g id="Layer_2" data-name="Layer 2"><path class="cls-1" d="M187.57,351.15c-40.44-.25-78.54-16.54-107.25-45.86S36.1,237.51,36.69,197A151,151,0,0,1,81.9,91.18c3.46-3.41,7.12-6.7,10.9-9.78l.14-.11.13-.12a151.19,151.19,0,0,1,103.77-41c14.18,0,30.6,1.16,44.74,9.76l1.2.75a15.46,15.46,0,0,0,8.56,2.56,15.88,15.88,0,0,0,5.19-.87,15.17,15.17,0,0,1,2.13-.57,112.93,112.93,0,0,1,20-2.06h1.42c39.45,0,74.86,16.17,97.14,44.35,13.71,17.34,22.52,42.56,23,65.83.78,38.52-17.18,74-46.89,92.69-2.63,1.65-16.4,10-29.75,12.72a10,10,0,0,0-6.69,3.21,125.16,125.16,0,0,1-9.16,9,6.86,6.86,0,0,0-1.82,7.71A14.32,14.32,0,0,1,302.65,301c-3.16,3.06-6.54,6.07-10.06,8.94l-.14.11-.13.12a151.27,151.27,0,0,1-103.77,41Z"/><path class="cls-2" d="M279.51,63.77A98.19,98.19,0,0,0,262,65.57a1,1,0,0,0,0,2c13.13,2.7,26.77,8.66,34.88,14.48,35.12,25.18,49.44,55.61,49.44,105a116.85,116.85,0,0,1-14,55.55,1,1,0,0,0,1.35,1.26,97.77,97.77,0,0,0,44.93-82.44C378.52,107.22,333.75,63.09,279.51,63.77Z"/><path class="cls-3" d="M290.46,91c-11.61-8.32-34.82-16-47.49-13.4,0,0,2.74-9.11-8-15.65s-24-7.72-37.48-7.72A137.84,137.84,0,0,0,59.64,190c-1.11,75.85,61.08,139.42,136.94,139.89a137.35,137.35,0,0,0,96.94-39,.37.37,0,0,0-.48-.56,116.86,116.86,0,0,1-67.71,21.34c-63.07,0-114.21-49.09-114.21-109.64a106.42,106.42,0,0,1,24.57-67.93.25.25,0,0,1,.41.28,106.57,106.57,0,1,0,199.22,52.69C335.32,138.45,321,112.84,290.46,91Z"/></g><g id="Layer_1" data-name="Layer 1"><text class="cls-4" transform="translate(186 449.79)">DIGITAL PEACH</text></g></svg>