<svg xmlns="http://www.w3.org/2000/svg" viewBox="0 0 800 500"><defs><style>.cls-1,.cls-2{fill:#231f20;}.cls-2{font-size:85px;font-family:Bauhaus93, Bauhaus 93;}</style></defs><title>digtal_peach_b</title><g id="Layer_1" data-name="Layer 1"><path class="cls-1" d="M400,157.54c-.48-23.66-9.44-49.32-23.39-67-22.67-28.67-58.68-45.11-98.81-45.11h-1.45a115.1,115.1,0,0,0-20.38,2.09,16,16,0,0,0-2.16.58,16.17,16.17,0,0,1-5.28.89,15.83,15.83,0,0,1-8.71-2.6c-.39-.26-.8-.52-1.21-.77-14.4-8.75-31.09-9.93-45.52-9.93A153.85,153.85,0,0,0,87.5,77.43l-.13.12-.14.12c-3.84,3.13-7.58,6.47-11.09,9.94a153.56,153.56,0,0,0-46,107.68c-.6,41.17,15.16,80.28,44.39,110.12s68,46.39,109.09,46.65h1a153.89,153.89,0,0,0,105.57-41.74l.13-.12.14-.11c3.58-2.92,7-6,10.23-9.1A14.55,14.55,0,0,0,304,285a7,7,0,0,1,1.85-7.84,123.62,123.62,0,0,0,9.32-9.14,10.18,10.18,0,0,1,6.81-3.25c13.58-2.78,27.58-11.27,30.26-12.95C382.5,232.85,400.77,196.73,400,157.54Zm-174.43,136a108.42,108.42,0,0,1-94.26-162,.26.26,0,0,0-.43-.29,108.3,108.3,0,0,0-25,69.1c0,61.6,52,111.53,116.18,111.53a118.9,118.9,0,0,0,68.88-21.71.38.38,0,0,1,.48.58,139.74,139.74,0,0,1-98.6,39.64c-77.17-.49-140.43-65.15-139.3-142.31A140.22,140.22,0,0,1,193.7,50c13.75,0,27.13,1.17,38.12,7.85S240,73.76,240,73.76c12.89-2.64,36.5,5.17,48.3,13.63,31,22.26,45.64,48.3,45.64,97.78A108.41,108.41,0,0,1,225.54,293.57ZM332.25,243a1,1,0,0,1-1.38-1.28,118.81,118.81,0,0,0,14.22-56.51c0-50.28-14.57-81.24-50.29-106.85-8.25-5.91-22.13-12-35.49-14.72a1,1,0,0,1,0-2,99.7,99.7,0,0,1,17.83-1.83c55.18-.7,100.72,44.2,100.8,99.38A99.41,99.41,0,0,1,332.25,243Z"/><text class="cls-2" transform="translate(186 449.79)">DIGITAL PEACH</text></g></svg>