<svg id="Layer_1" data-name="Layer 1" xmlns="http://www.w3.org/2000/svg" viewBox="0 0 500 500"><defs><style>.cls-1{fill:#010101;}</style></defs><title>icon_peach_fblack</title><path class="cls-1" d="M490.83,209.31c-.63-30.82-12.3-64.24-30.46-87.21-29.53-37.34-76.44-58.76-128.7-58.76h-1.89a149.42,149.42,0,0,0-26.54,2.73,20.52,20.52,0,0,0-2.82.75A21,21,0,0,1,293.54,68,20.55,20.55,0,0,1,282.2,64.6c-.51-.34-1-.67-1.58-1-18.75-11.4-40.49-12.93-59.29-12.93A200.31,200.31,0,0,0,83.85,105l-.17.16-.18.15c-5,4.07-9.87,8.43-14.45,13A200,200,0,0,0,9.16,258.48C8.37,312.1,28.9,363,67,401.9s88.5,60.42,142.09,60.76h1.29a200.39,200.39,0,0,0,137.49-54.36l.17-.16.18-.15c4.66-3.79,9.15-7.78,13.33-11.84a19,19,0,0,0,4.37-20.83,9.08,9.08,0,0,1,2.4-10.21,162.22,162.22,0,0,0,12.14-11.9A13.18,13.18,0,0,1,389.3,349c17.68-3.62,35.92-14.68,39.41-16.86C468.07,307.4,491.87,260.34,490.83,209.31ZM263.64,386.48a141.22,141.22,0,0,1-122.77-211,.34.34,0,0,0-.56-.38,141.07,141.07,0,0,0-32.54,90c0,80.23,67.75,145.27,151.32,145.27A154.87,154.87,0,0,0,348.8,382.1a.49.49,0,0,1,.62.75A182,182,0,0,1,221,434.48c-100.52-.63-182.9-84.84-181.43-185.35,1.45-99.6,82.65-179.9,182.61-179.9,17.89,0,35.32,1.52,49.64,10.23s10.64,20.73,10.64,20.73c16.78-3.44,47.53,6.73,62.91,17.76,40.42,29,59.44,62.9,59.44,127.34A141.19,141.19,0,0,1,263.64,386.48Zm139-65.91a1.27,1.27,0,0,1-1.79-1.68,154.75,154.75,0,0,0,18.51-73.6c0-65.49-19-105.8-65.5-139.16C343.1,98.43,325,90.53,307.62,87a1.35,1.35,0,0,1,0-2.65,129.75,129.75,0,0,1,23.23-2.39c71.86-.9,131.19,57.57,131.28,129.44A129.51,129.51,0,0,1,402.62,320.57Z"/></svg>