<svg id="Layer_1" data-name="Layer 1" xmlns="http://www.w3.org/2000/svg" xmlns:xlink="http://www.w3.org/1999/xlink" viewBox="0 0 500 500"><defs><style>.cls-1{fill:#010101;}.cls-2{fill:url(#linear-gradient);}.cls-3{fill:url(#linear-gradient-2);}</style><linearGradient id="linear-gradient" x1="306.55" y1="201.34" x2="462.14" y2="201.34" gradientUnits="userSpaceOnUse"><stop offset="0" stop-color="#008057"/><stop offset="0.16" stop-color="#008460"/><stop offset="0.44" stop-color="#008f7a"/><stop offset="0.79" stop-color="#00a0a3"/><stop offset="0.99" stop-color="#00acbf"/></linearGradient><linearGradient id="linear-gradient-2" x1="39.55" y1="251.86" x2="404.81" y2="251.86" gradientUnits="userSpaceOnUse"><stop offset="0" stop-color="#ee3665"/><stop offset="0.31" stop-color="#ee3f6e"/><stop offset="0.82" stop-color="#f05788"/><stop offset="0.99" stop-color="#f06192"/></linearGradient></defs><title>icon_peach_black_vec</title><path class="cls-1" d="M209.06,462.66C155.47,462.32,105,440.75,67,401.9S8.37,312.1,9.16,258.48A200,200,0,0,1,69.05,118.23c4.58-4.52,9.44-8.88,14.45-13l.18-.15.17-.16a200.31,200.31,0,0,1,137.48-54.3c18.8,0,40.54,1.53,59.29,12.93.54.33,1.07.66,1.58,1A20.55,20.55,0,0,0,293.54,68a21,21,0,0,0,6.88-1.16,20.52,20.52,0,0,1,2.82-.75,149.42,149.42,0,0,1,26.54-2.73h1.89c52.26,0,99.17,21.42,128.7,58.76,18.16,23,29.83,56.39,30.46,87.21,1,51-22.76,98.09-62.12,122.81C425.22,334.3,407,345.36,389.3,349a13.18,13.18,0,0,0-8.87,4.24,162.22,162.22,0,0,1-12.14,11.9,9.08,9.08,0,0,0-2.4,10.21,19,19,0,0,1-4.37,20.83c-4.18,4.06-8.67,8-13.33,11.84l-.18.15-.17.16a200.39,200.39,0,0,1-137.49,54.36Z"/><path class="cls-2" d="M330.86,81.91a129.75,129.75,0,0,0-23.23,2.39,1.35,1.35,0,0,0,0,2.65c17.4,3.58,35.48,11.48,46.22,19.18,46.53,33.36,65.5,73.67,65.5,139.16a154.75,154.75,0,0,1-18.51,73.6,1.27,1.27,0,0,0,1.79,1.68,129.51,129.51,0,0,0,59.52-109.22C462.05,139.48,402.72,81,330.86,81.91Z"/><path class="cls-3" d="M345.37,118c-15.38-11-46.13-21.2-62.91-17.76,0,0,3.62-12.06-10.64-20.73s-31.75-10.23-49.64-10.23c-100,0-181.16,80.3-182.61,179.9C38.1,349.64,120.48,433.85,221,434.48a182,182,0,0,0,128.42-51.63.49.49,0,0,0-.62-.75,154.87,154.87,0,0,1-89.71,28.28c-83.57,0-151.32-65-151.32-145.27a141.07,141.07,0,0,1,32.54-90,.34.34,0,0,1,.56.38,141.2,141.2,0,1,0,263.94,69.8C404.81,180.85,385.79,146.93,345.37,118Z"/></svg>