<svg id="Layer_1" data-name="Layer 1" xmlns="http://www.w3.org/2000/svg" xmlns:xlink="http://www.w3.org/1999/xlink" viewBox="0 0 500 500"><defs><style>.cls-1{fill:#f1f2f2;}.cls-2{fill:url(#linear-gradient);}.cls-3{fill:url(#linear-gradient-2);}.cls-4{fill:url(#linear-gradient-3);}.cls-5{fill:url(#linear-gradient-4);}.cls-12,.cls-6,.cls-7,.cls-8{stroke:#e6e7e8;stroke-miterlimit:10;stroke-width:12px;}.cls-6{fill:url(#linear-gradient-5);}.cls-7{fill:url(#linear-gradient-6);}.cls-8{fill:url(#linear-gradient-7);}.cls-9{fill:url(#linear-gradient-8);}.cls-10{fill:url(#linear-gradient-9);}.cls-11{fill:url(#linear-gradient-10);}.cls-12{fill:url(#linear-gradient-11);}</style><linearGradient id="linear-gradient" x1="25.67" y1="250" x2="474.33" y2="250" gradientUnits="userSpaceOnUse"><stop offset="0" stop-color="#7f3f98"/><stop offset="1" stop-color="#da1c5c"/></linearGradient><linearGradient id="linear-gradient-2" x1="231.12" y1="220.19" x2="140.88" y2="306.63" gradientUnits="userSpaceOnUse"><stop offset="0" stop-color="#262262" stop-opacity="0"/><stop offset="1" stop-color="#262262" stop-opacity="0.96"/></linearGradient><linearGradient id="linear-gradient-3" x1="354.59" y1="286.02" x2="264.34" y2="372.46" xlink:href="#linear-gradient-2"/><linearGradient id="linear-gradient-4" x1="103.94" y1="-0.05" x2="379.65" y2="477.5" gradientUnits="userSpaceOnUse"><stop offset="0" stop-color="#58595b"/><stop offset="1" stop-color="#231f20"/></linearGradient><linearGradient id="linear-gradient-5" x1="90.93" y1="206.8" x2="144.97" y2="206.8" gradientUnits="userSpaceOnUse"><stop offset="0" stop-color="#fff"/><stop offset="1" stop-color="#7fa6c9"/></linearGradient><linearGradient id="linear-gradient-6" x1="212.52" y1="278.15" x2="266.57" y2="278.15" xlink:href="#linear-gradient-5"/><linearGradient id="linear-gradient-7" x1="334.12" y1="349.49" x2="388.16" y2="349.49" xlink:href="#linear-gradient-5"/><linearGradient id="linear-gradient-8" x1="117.08" y1="224.85" x2="117.08" y2="112.35" gradientUnits="userSpaceOnUse"><stop offset="0" stop-opacity="0"/><stop offset="1" stop-color="#2b4b7d"/></linearGradient><linearGradient id="linear-gradient-9" x1="239.54" y1="288.91" x2="239.54" y2="176.41" xlink:href="#linear-gradient-8"/><linearGradient id="linear-gradient-10" x1="361.14" y1="366.8" x2="361.14" y2="254.3" xlink:href="#linear-gradient-8"/><linearGradient id="linear-gradient-11" x1="-50.06" y1="-455.63" x2="8.11" y2="-455.63" gradientTransform="translate(273.18 1039.38) scale(1 1.89)" xlink:href="#linear-gradient-5"/></defs><title>sop_peachM_railing</title><path class="cls-1" d="M250,496A246,246,0,0,1,76.05,76.05,246,246,0,0,1,424,424,244.42,244.42,0,0,1,250,496Z"/><circle class="cls-2" cx="250" cy="250" r="224.33"/><polygon class="cls-3" points="261.39 212.32 212.52 215.49 89.05 328.85 150.76 324.6 261.39 212.32"/><polygon class="cls-4" points="384.86 278.15 335.99 281.31 212.52 394.67 274.23 390.43 384.86 278.15"/><path class="cls-5" d="M361.14,481.08a46.07,46.07,0,0,1-46-46V274.45l-29.56-19.11V363.71a46,46,0,0,1-92,0V195.8L164,176.68V292.37a46,46,0,0,1-92,0v-171c0-1.38.06-2.77.18-4.15L56.38,107.09A46.3,46.3,0,0,1,42.67,43.16l2-3.11a46.2,46.2,0,0,1,63.92-13.71L448,245.9a46.28,46.28,0,0,1,13.71,63.92l-2,3.12a46.25,46.25,0,0,1-52.57,19V435.06A46.07,46.07,0,0,1,361.14,481.08Z"/><rect class="cls-6" x="90.93" y="94.3" width="54.05" height="225" rx="25.62" ry="25.62"/><rect class="cls-7" x="212.52" y="165.65" width="54.05" height="225" rx="25.62" ry="25.62"/><rect class="cls-8" x="334.12" y="236.99" width="54.05" height="225" rx="25.62" ry="25.62"/><rect class="cls-9" x="94.52" y="112.35" width="45.12" height="112.5"/><rect class="cls-10" x="216.98" y="176.41" width="45.12" height="112.5"/><rect class="cls-11" x="338.58" y="254.3" width="45.12" height="112.5"/><rect class="cls-12" x="223.12" y="-52.95" width="58.17" height="458.71" rx="27.58" ry="27.58" transform="translate(-32.89 292.36) rotate(-57.1)"/></svg>