<svg id="Layer_1" data-name="Layer 1" xmlns="http://www.w3.org/2000/svg" xmlns:xlink="http://www.w3.org/1999/xlink" viewBox="0 0 500 500"><defs><style>.cls-1{fill:#f1f2f2;}.cls-2{fill:url(#linear-gradient);}.cls-3{fill:url(#linear-gradient-2);}.cls-4{fill:url(#linear-gradient-3);}.cls-5{stroke:#e6e7e8;stroke-miterlimit:10;stroke-width:21px;fill:url(#linear-gradient-4);}</style><linearGradient id="linear-gradient" x1="25.67" y1="250" x2="474.33" y2="250" gradientUnits="userSpaceOnUse"><stop offset="0" stop-color="#7f3f98"/><stop offset="1" stop-color="#da1c5c"/></linearGradient><linearGradient id="linear-gradient-2" x1="108.92" y1="395.5" x2="156.92" y2="346" gradientUnits="userSpaceOnUse"><stop offset="0" stop-color="#262262" stop-opacity="0"/><stop offset="1" stop-color="#262262" stop-opacity="0.96"/></linearGradient><linearGradient id="linear-gradient-3" x1="495.04" y1="-21.22" x2="137.26" y2="370.68" gradientUnits="userSpaceOnUse"><stop offset="0" stop-color="#58595b"/><stop offset="1" stop-color="#231f20"/></linearGradient><linearGradient id="linear-gradient-4" x1="526.67" y1="-39.8" x2="159.67" y2="362.2" gradientTransform="matrix(0.98, 0, 0.6, 1.02, -144.8, -5.65)" gradientUnits="userSpaceOnUse"><stop offset="0" stop-color="#fff"/><stop offset="0.86" stop-color="#7fa6c9"/></linearGradient></defs><title>sop</title><path class="cls-1" d="M250,496A246,246,0,0,1,76.05,76.05,246,246,0,0,1,424,424,244.42,244.42,0,0,1,250,496Z"/><circle class="cls-2" cx="250" cy="250" r="224.33"/><path class="cls-3" d="M465.43,312.74c0-1.36,0-2.71-.06-4.06-.5-18.9-6.47-38.3-12-56.24a410.36,410.36,0,0,0-19.64-51.85c-6.1-13.12-15.87-23.72-25.9-33.94-6.35-6.48-12.38-13.77-19.11-19.87-1.62-1.48-1.22-1.41-3.18-.34L376,151.65l-15.82,8.62c-.61-1.4,8.72-10.41,9.76-11.6q5.19-6,10.4-12c-26.69-19.27-52.95-38.39-82.83-52.61l-17.63-8.39-9.7,27.92c-1.86-.71-8.71-2.22-9.38-3.74-.42-1,0-3.11-.06-4.11q-.1-7.27-.22-14.56,0-3.52-.11-7c0-1.15.43-3.62-.07-4.7-.78-1.71-4.75-1.93-6.74-2.46-13.42-3.52-26.82-6.92-40.57-9a350.75,350.75,0,0,0-35.45-3.09L150.87,53.6l7.42,23.25-11.08-18c-1.67-2.69-1.62-2.25-4.84-1.59-3.64.74-7.29,1.45-10.92,2.23A224.34,224.34,0,0,0,88.59,405.78c1.82-.74,3.86-2.35,5.35-3.15l8.53-4.65,11.46-6.24c.58,1.33-8.79,10.4-9.79,11.55l-8.37,9.61A223.91,223.91,0,0,0,197,468l6.84-19.58c1.86.72,8.72,2.23,9.39,3.76.42,1,0,3.1,0,4.11l.2,14.55v.5a226,226,0,0,0,36.47,3C352.12,474.33,438.29,406.1,465.43,312.74ZM179,255.68a79.94,79.94,0,0,1-5.44-6.37c14.91-3.87,31.24-.74,45.32,4.77,16.35,6.38,31.59,16.88,42.34,30.86C236.94,291.23,201.11,279.1,179,255.68Z"/><path class="cls-4" d="M495.18,262.33c-3.48-18-14.66-33.22-25.26-51.22L462.16,198l-34.05,0,0-.23,29.08-9.89-24.64-29.13a449.78,449.78,0,0,0-47.25-47.87L367.41,95.26l-19.08,18.15q-4.5-3.47-9.09-6.8l9.18-25.41L331.05,70a428.77,428.77,0,0,0-58-31.56l-38.19-17,.86,21.86-7.27-21.67-14-3.34A240.4,240.4,0,0,0,159,11.36L121.66,14.5l-13.9,4.69c-16.15,5.48-30.2,13.67-41.54,24.6-5.46,5.27-16.32,16-20.89,22-7.44,9.88-18.88,32-24,43.28-6.5,14.29-7.72,31.13-7,48.64l.36,9.25,9.77,43.21a282.47,282.47,0,0,0,24.64,53.12l7.65,13,34.06,0,0,.2-29.12,9.85,24.65,29.17a450.56,450.56,0,0,0,47.21,47.9L151.35,379l19.12-18.11c3,2.31,6,4.59,9.09,6.81l-9.22,25.39,17.38,11.25a429.1,429.1,0,0,0,58,31.6l38.14,17L283,431l7.29,21.8,14,3.35a240.37,240.37,0,0,0,55.68,7s48.45,8.51,87.8-28.09c14.37-13.36,25.18-25.82,31-36.22,5.25-9.4,17.26-32.12,19-42.66C503.21,324.5,499.62,285.32,495.18,262.33Zm-273.63-51a84.18,84.18,0,0,1-3.92-7.48c28.12,5.51,63.09,30.82,79.83,59.24a81.4,81.4,0,0,1,3.91,7.48C273.25,265.1,238.28,239.78,221.55,211.37Z"/><path class="cls-5" d="M470,272.75a256.48,256.48,0,0,0-22.48-48.42l-.21-.35-33.45,0a288.46,288.46,0,0,0-28.15-39.32l26.94-9.15a423.24,423.24,0,0,0-44.51-45.1L349.6,148.09A362.44,362.44,0,0,0,308,116.68l9-24.87a403.09,403.09,0,0,0-54.46-29.64l1.19,30.4a253.87,253.87,0,0,0-43.9-15.09L208.39,43.57a214.76,214.76,0,0,0-49.59-6.21h-.25L179.2,72.43a108.33,108.33,0,0,0-34.45,5.25L116.11,43.81a86.05,86.05,0,0,0-32,18.83L118.79,93a62.29,62.29,0,0,0-15.74,24.25L64.78,92.47c-4.2,11.59-6.05,24.64-5.51,38.78l39.3,17.5a132.26,132.26,0,0,0,7.15,36.68l-37.65-9a256.74,256.74,0,0,0,22.41,48.22l.1.18,33.46,0a287.54,287.54,0,0,0,28.12,39.34l-27,9.12a422.89,422.89,0,0,0,44.47,45.11l18.59-17.61a362.78,362.78,0,0,0,41.62,31.44l-9,24.84a402.82,402.82,0,0,0,54.46,29.68l-1.15-30.39a253.07,253.07,0,0,0,43.91,15.13l11.34,33.91a215.15,215.15,0,0,0,49.8,6.26h.08l-20.71-35.07a108.12,108.12,0,0,0,34.55-5.21l28.61,33.88a86.16,86.16,0,0,0,32-18.78l-34.64-30.33a62.34,62.34,0,0,0,15.78-24.22l38.26,24.76c4.22-11.58,6.09-24.61,5.57-38.75l-39.31-17.53a131.72,131.72,0,0,0-7.1-36.67Zm-157.88,25c-38.58,0-89.17-32.72-113-73.16s-11.85-73.26,26.73-73.3,89.17,32.72,113,73.16S350.71,297.69,312.13,297.73Z"/></svg>