<svg id="Layer_1" data-name="Layer 1" xmlns="http://www.w3.org/2000/svg" xmlns:xlink="http://www.w3.org/1999/xlink" viewBox="0 0 500 500"><defs><style>.cls-1{fill:#f1f2f2;}.cls-2{fill:url(#linear-gradient);}.cls-3{fill:url(#linear-gradient-2);}.cls-4{fill:url(#linear-gradient-3);}.cls-5,.cls-7{stroke:#e6e7e8;stroke-miterlimit:10;stroke-width:12px;}.cls-5{fill:url(#linear-gradient-4);}.cls-6{fill:url(#linear-gradient-5);}.cls-7{fill:url(#linear-gradient-6);}</style><linearGradient id="linear-gradient" x1="25.67" y1="250" x2="474.33" y2="250" gradientUnits="userSpaceOnUse"><stop offset="0" stop-color="#7f3f98"/><stop offset="1" stop-color="#da1c5c"/></linearGradient><linearGradient id="linear-gradient-2" x1="404.54" y1="149.44" x2="285.39" y2="263.58" gradientUnits="userSpaceOnUse"><stop offset="0" stop-color="#262262" stop-opacity="0"/><stop offset="1" stop-color="#262262" stop-opacity="0.96"/></linearGradient><linearGradient id="linear-gradient-3" x1="52.21" y1="251.3" x2="447.79" y2="251.3" gradientUnits="userSpaceOnUse"><stop offset="0" stop-color="#58595b"/><stop offset="1" stop-color="#231f20"/></linearGradient><linearGradient id="linear-gradient-4" x1="74.21" y1="247.12" x2="429.54" y2="247.12" gradientUnits="userSpaceOnUse"><stop offset="0" stop-color="#fff"/><stop offset="1" stop-color="#7fa6c9"/></linearGradient><linearGradient id="linear-gradient-5" x1="403.77" y1="255.04" x2="56.03" y2="255.04" gradientUnits="userSpaceOnUse"><stop offset="0" stop-opacity="0"/><stop offset="1" stop-color="#2b4b7d"/></linearGradient><linearGradient id="linear-gradient-6" x1="70.46" y1="278.74" x2="296.78" y2="278.74" xlink:href="#linear-gradient-4"/></defs><title>sop_</title><path class="cls-1" d="M250,496A246,246,0,0,1,76.05,76.05,246,246,0,0,1,424,424,244.42,244.42,0,0,1,250,496Z"/><circle class="cls-2" cx="250" cy="250" r="224.33"/><polygon class="cls-3" points="447.79 356.64 375.72 67.23 189.51 106.79 351.15 432.99 447.79 356.64"/><path class="cls-4" d="M279.12,474.33a35.8,35.8,0,0,1-18.94-5.45L69.11,349.79a35.66,35.66,0,0,1-16.9-30.45V121.41A36.07,36.07,0,0,1,62,96.75,35.68,35.68,0,0,1,76.11,84.48l96.18-46.75A94,94,0,0,1,235.93,31l43.43,10.7a35.46,35.46,0,0,1,27.38,34.63v52.78a17.56,17.56,0,0,0,9.51,15.65l32.3,16.74a54.38,54.38,0,0,1,29.19,49.79L377,235.11a17.67,17.67,0,0,0,8.2,15.46l37.37,23.59a53.82,53.82,0,0,1,25.24,45.77v57.18a36.6,36.6,0,0,1-21.34,33.21L311.73,462.67a64.29,64.29,0,0,1-9.88,3.55A36.47,36.47,0,0,1,279.12,474.33Z"/><path class="cls-5" d="M412.81,288.41l-37.37-23.59a35.88,35.88,0,0,1-16.71-31.48l.77-23.82a35.88,35.88,0,0,0-19.35-33l-32.3-16.74a35.88,35.88,0,0,1-19.37-31.85V75.15A17.18,17.18,0,0,0,275,58.25L231.56,47.54A75.8,75.8,0,0,0,180.27,53L84.09,99.71a17.57,17.57,0,0,0-9.34,20.1L122.8,309a18.23,18.23,0,0,0,5.22,8.83l127.06,119a44.65,44.65,0,0,0,49.07,8l114.71-52.35a18.23,18.23,0,0,0,10.68-16.6V318.74A35.87,35.87,0,0,0,412.81,288.41Z"/><polygon class="cls-6" points="425.48 376.47 419.96 310.83 296.78 371.06 296.78 379.05 257.66 362 237.78 324.13 351.78 271.19 348.46 198.15 229.52 253.55 229.52 280.84 167.66 218.5 167.31 204.26 278.52 156.96 278.52 71.76 156.47 130.27 156.47 208.87 221.93 310.83 229.52 326.42 229.52 327.97 230.14 327.68 254.66 378 296.78 435 296.78 438.32 425.48 376.47"/><path class="cls-7" d="M78.76,333.1,269.84,452.19a17.62,17.62,0,0,0,26.94-14.95V375a17.61,17.61,0,0,0-8.22-14.9l-54.71-34.53a17.62,17.62,0,0,1-8.21-15.47l1.47-45.75a17.63,17.63,0,0,0-9.51-16.21L165.24,221a17.6,17.6,0,0,1-9.51-15.64V141.42A17.61,17.61,0,0,0,145,125.2L95,104a17.62,17.62,0,0,0-24.5,16.22V318.15A17.61,17.61,0,0,0,78.76,333.1Z"/></svg>