<svg id="Layer_1" data-name="Layer 1" xmlns="http://www.w3.org/2000/svg" xmlns:xlink="http://www.w3.org/1999/xlink" viewBox="0 0 500 500"><defs><style>.cls-1{fill:#f1f2f2;}.cls-2{fill:url(#linear-gradient);}.cls-3{fill:url(#linear-gradient-2);}.cls-4{fill:url(#linear-gradient-3);}.cls-5,.cls-6,.cls-7,.cls-9{stroke:#e6e7e8;stroke-miterlimit:10;stroke-width:12px;}.cls-5{fill:url(#linear-gradient-4);}.cls-6{fill:url(#linear-gradient-5);}.cls-7{fill:url(#linear-gradient-6);}.cls-8{fill:url(#linear-gradient-7);}.cls-9{fill:url(#linear-gradient-8);}</style><linearGradient id="linear-gradient" x1="25.67" y1="250" x2="474.33" y2="250" gradientUnits="userSpaceOnUse"><stop offset="0" stop-color="#7f3f98"/><stop offset="1" stop-color="#da1c5c"/></linearGradient><linearGradient id="linear-gradient-2" x1="326.23" y1="228.32" x2="203.97" y2="345.43" gradientUnits="userSpaceOnUse"><stop offset="0" stop-color="#262262" stop-opacity="0"/><stop offset="1" stop-color="#262262" stop-opacity="0.96"/></linearGradient><linearGradient id="linear-gradient-3" x1="103.94" y1="-0.05" x2="379.65" y2="477.5" gradientUnits="userSpaceOnUse"><stop offset="0" stop-color="#58595b"/><stop offset="1" stop-color="#231f20"/></linearGradient><linearGradient id="linear-gradient-4" x1="90.93" y1="206.8" x2="144.97" y2="206.8" gradientUnits="userSpaceOnUse"><stop offset="0" stop-color="#fff"/><stop offset="1" stop-color="#7fa6c9"/></linearGradient><linearGradient id="linear-gradient-5" x1="212.52" y1="278.15" x2="266.57" y2="278.15" xlink:href="#linear-gradient-4"/><linearGradient id="linear-gradient-6" x1="334.12" y1="349.49" x2="388.16" y2="349.49" xlink:href="#linear-gradient-4"/><linearGradient id="linear-gradient-7" x1="218.01" y1="270.59" x2="262.73" y2="201.59" gradientUnits="userSpaceOnUse"><stop offset="0" stop-opacity="0"/><stop offset="1" stop-color="#2b4b7d"/></linearGradient><linearGradient id="linear-gradient-8" x1="192.54" y1="-691.02" x2="250.71" y2="-691.02" gradientTransform="translate(30.59 1485.24) scale(1 1.89)" xlink:href="#linear-gradient-4"/></defs><title>sop_</title><path class="cls-1" d="M250,496A246,246,0,0,1,76.05,76.05,246,246,0,0,1,424,424,244.42,244.42,0,0,1,250,496Z"/><circle class="cls-2" cx="250" cy="250" r="224.33"/><polygon class="cls-3" points="380.5 282.57 384.86 278.15 380.5 278.43 380.5 231.5 252.21 194 227.25 214.53 212.52 215.49 89.05 328.85 150.76 324.6 237.78 236.28 292.5 222.5 348.5 278.74 347.44 280.57 335.99 281.31 212.52 394.67 274.23 390.43 350.52 312.99 380.5 303 380.5 282.57"/><path class="cls-4" d="M361.14,481.08a46.07,46.07,0,0,1-46-46V274.45l-29.56-19.11V363.71a46,46,0,0,1-92,0V195.8L164,176.68V292.37a46,46,0,0,1-92,0v-171c0-1.38.06-2.77.18-4.15L56.38,107.09A46.3,46.3,0,0,1,42.67,43.16l2-3.11a46.2,46.2,0,0,1,63.92-13.71L448,245.9a46.28,46.28,0,0,1,13.71,63.92l-2,3.12a46.25,46.25,0,0,1-52.57,19V435.06A46.07,46.07,0,0,1,361.14,481.08Z"/><rect class="cls-5" x="90.93" y="94.3" width="54.05" height="225" rx="25.62" ry="25.62"/><rect class="cls-6" x="212.52" y="165.65" width="54.05" height="225" rx="25.62" ry="25.62"/><rect class="cls-7" x="334.12" y="236.99" width="54.05" height="225" rx="25.62" ry="25.62"/><polygon class="cls-8" points="397 274.33 382.7 265.57 382.7 254.3 364.32 254.3 261.1 191.02 261.1 176.41 237.27 176.41 138.64 115.94 138.64 112.35 132.78 112.35 131.67 111.67 119.67 102.58 111.32 112.35 93.52 112.35 93.52 224.85 138.64 224.85 138.64 144.68 174.22 161.25 215.98 195.32 215.98 288.91 261.1 288.91 261.1 205.33 265.57 203.67 337.58 259.2 337.58 366.8 382.7 366.8 382.7 283.01 397 274.33"/><rect class="cls-9" x="223.12" y="-52.95" width="58.17" height="458.71" rx="27.58" ry="27.58" transform="translate(-32.89 292.36) rotate(-57.1)"/></svg>