<svg id="Layer_1" data-name="Layer 1" xmlns="http://www.w3.org/2000/svg" xmlns:xlink="http://www.w3.org/1999/xlink" viewBox="0 0 500 500"><defs><style>.cls-1{fill:#f1f2f2;}.cls-2{fill:url(#linear-gradient);}.cls-3{fill:url(#linear-gradient-2);}.cls-4{fill:url(#linear-gradient-3);}.cls-5,.cls-7{stroke:#e6e7e8;stroke-miterlimit:10;stroke-width:12px;}.cls-5{fill:url(#linear-gradient-4);}.cls-6{fill:url(#linear-gradient-5);}.cls-7{fill:url(#linear-gradient-6);}</style><linearGradient id="linear-gradient" x1="25.67" y1="250" x2="474.33" y2="250" gradientUnits="userSpaceOnUse"><stop offset="0" stop-color="#00a651"/><stop offset="0.01" stop-color="#04a750"/><stop offset="0.17" stop-color="#2eb04b"/><stop offset="0.33" stop-color="#50b847"/><stop offset="0.49" stop-color="#6bbe43"/><stop offset="0.65" stop-color="#7ec341"/><stop offset="0.82" stop-color="#89c53f"/><stop offset="1" stop-color="#8dc63f"/></linearGradient><linearGradient id="linear-gradient-2" x1="379.1" y1="181.89" x2="195.74" y2="357.52" gradientUnits="userSpaceOnUse"><stop offset="0" stop-color="#262262" stop-opacity="0"/><stop offset="1" stop-color="#006838" stop-opacity="0.96"/></linearGradient><linearGradient id="linear-gradient-3" x1="5.87" y1="165.65" x2="297.34" y2="165.65" gradientUnits="userSpaceOnUse"><stop offset="0" stop-color="#58595b"/><stop offset="1" stop-color="#231f20"/></linearGradient><linearGradient id="linear-gradient-4" x1="29.7" y1="165.65" x2="273.54" y2="165.65" gradientUnits="userSpaceOnUse"><stop offset="0" stop-color="#fbb040"/><stop offset="1" stop-color="#ef4136"/></linearGradient><linearGradient id="linear-gradient-5" x1="159.17" y1="336.41" x2="465.06" y2="336.41" xlink:href="#linear-gradient-3"/><linearGradient id="linear-gradient-6" x1="183.01" y1="336.41" x2="441.22" y2="336.41" xlink:href="#linear-gradient-4"/></defs><title>sop_</title><path class="cls-1" d="M250,496A246,246,0,0,1,76.05,76.05,246,246,0,0,1,424,424,244.42,244.42,0,0,1,250,496Z"/><circle class="cls-2" cx="250" cy="250" r="224.33"/><polygon class="cls-3" points="378.13 373.08 341.64 388.99 354.32 373.08 281.94 279.19 413.49 137.6 379.76 134.6 250.14 233.37 240.84 218.08 379.76 114.87 241.01 110.91 5.87 314.36 111.26 314.36 205.55 244.31 214.89 260.24 143.87 314.36 246.63 314.36 300.84 406.77 159.17 468.53 255.04 466.94 433.32 355 378.13 373.08"/><polygon class="cls-4" points="149.18 314.36 124.55 237.35 111.26 314.36 5.87 314.36 58.33 16.93 155.97 16.93 179.88 87.87 192.41 16.93 297.34 16.93 245.29 314.36 149.18 314.36"/><polygon class="cls-5" points="273.54 36.93 228.49 294.36 163.78 294.36 118.73 153.49 94.42 294.36 29.7 294.36 75.11 36.93 141.61 36.93 185.94 168.51 209.19 36.93 273.54 36.93"/><polygon class="cls-6" points="322.8 466.94 331.73 416.59 266.1 416.59 264.8 411.93 255.04 466.94 159.17 466.94 205.22 205.88 294.46 205.88 319.24 285.76 372.49 205.88 465.06 205.88 419.01 466.94 322.8 466.94"/><polygon class="cls-7" points="279.72 225.88 312.58 331.8 383.19 225.88 441.22 225.88 402.23 446.94 346.66 446.94 368.76 322.29 321.48 396.59 281.26 396.59 260.38 322.29 238.28 446.94 183.01 446.94 222 225.88 279.72 225.88"/></svg>