<svg id="Layer_1" data-name="Layer 1" xmlns="http://www.w3.org/2000/svg" xmlns:xlink="http://www.w3.org/1999/xlink" viewBox="0 0 500 500"><defs><style>.cls-1{fill:#f1f2f2;}.cls-2{fill:url(#linear-gradient);}.cls-3{fill:url(#linear-gradient-2);}.cls-4{fill:url(#linear-gradient-3);}.cls-5{fill:#e6e7e8;}.cls-6{fill:url(#linear-gradient-4);}.cls-7{fill:url(#linear-gradient-5);}.cls-8{fill:url(#linear-gradient-6);}.cls-9{fill:url(#linear-gradient-7);}.cls-10{fill:url(#linear-gradient-8);}.cls-11,.cls-12,.cls-13,.cls-14{stroke:#e6e7e8;stroke-miterlimit:10;stroke-width:21px;}.cls-11{fill:url(#linear-gradient-9);}.cls-12{fill:url(#linear-gradient-10);}.cls-13{fill:url(#linear-gradient-11);}.cls-14{fill:url(#linear-gradient-12);}</style><linearGradient id="linear-gradient" x1="25.67" y1="250" x2="474.33" y2="250" gradientUnits="userSpaceOnUse"><stop offset="0" stop-color="#7f3f98"/><stop offset="1" stop-color="#da1c5c"/></linearGradient><linearGradient id="linear-gradient-2" x1="417.44" y1="99.9" x2="151.58" y2="354.56" gradientUnits="userSpaceOnUse"><stop offset="0" stop-color="#58595b"/><stop offset="1" stop-color="#231f20"/></linearGradient><linearGradient id="linear-gradient-3" x1="237.24" y1="233.65" x2="274.75" y2="273.43" gradientUnits="userSpaceOnUse"><stop offset="0" stop-color="#fff"/><stop offset="0.79" stop-color="#7fa6c9"/></linearGradient><linearGradient id="linear-gradient-4" x1="408.12" y1="225.06" x2="451.84" y2="223.88" gradientUnits="userSpaceOnUse"><stop offset="0" stop-color="#fff"/><stop offset="0.72" stop-color="#7fa6c9"/></linearGradient><linearGradient id="linear-gradient-5" x1="242.92" y1="101.68" x2="253.87" y2="147.07" gradientUnits="userSpaceOnUse"><stop offset="0" stop-color="#fff"/><stop offset="0.86" stop-color="#7fa6c9"/></linearGradient><linearGradient id="linear-gradient-6" x1="299.16" y1="185.15" x2="117.82" y2="283.15" gradientUnits="userSpaceOnUse"><stop offset="0" stop-opacity="0"/><stop offset="1" stop-color="#2b4b7d"/></linearGradient><linearGradient id="linear-gradient-7" x1="70.07" y1="286.37" x2="113.46" y2="285.2" gradientUnits="userSpaceOnUse"><stop offset="0" stop-color="#fff"/><stop offset="0.75" stop-color="#7fa6c9"/></linearGradient><linearGradient id="linear-gradient-8" x1="249.28" y1="373.05" x2="259.3" y2="414.82" gradientUnits="userSpaceOnUse"><stop offset="0" stop-color="#fff"/><stop offset="0.69" stop-color="#7fa6c9"/></linearGradient><linearGradient id="linear-gradient-9" x1="484.24" y1="-24.49" x2="427.51" y2="29.85" gradientTransform="matrix(0.97, -0.26, 0.26, 0.97, -35.28, 208.52)" gradientUnits="userSpaceOnUse"><stop offset="0" stop-color="#fff"/><stop offset="0.91" stop-color="#7fa6c9"/></linearGradient><linearGradient id="linear-gradient-10" x1="79.87" y1="375.46" x2="135.87" y2="429.46" gradientUnits="userSpaceOnUse"><stop offset="0" stop-color="#fff"/><stop offset="0.86" stop-color="#7fa6c9"/></linearGradient><linearGradient id="linear-gradient-11" x1="47.51" y1="133.33" x2="125.51" y2="180.33" gradientUnits="userSpaceOnUse"><stop offset="0" stop-color="#fff"/><stop offset="0.19" stop-color="#fbfcfd"/><stop offset="0.37" stop-color="#f0f5f9"/><stop offset="0.54" stop-color="#dee8f1"/><stop offset="0.7" stop-color="#c4d6e6"/><stop offset="0.86" stop-color="#a3bfd8"/><stop offset="1" stop-color="#7fa6c9"/></linearGradient><linearGradient id="linear-gradient-12" x1="424.68" y1="219.83" x2="364.1" y2="277.86" gradientTransform="matrix(0.97, -0.26, 0.26, 0.97, -35.28, 208.52)" gradientUnits="userSpaceOnUse"><stop offset="0" stop-color="#fff"/><stop offset="0.85" stop-color="#7fa6c9"/></linearGradient></defs><title>sop</title><path class="cls-1" d="M250,496A246,246,0,0,1,76.05,76.05,246,246,0,0,1,424,424,244.42,244.42,0,0,1,250,496Z"/><circle class="cls-2" cx="250" cy="250" r="224.33"/><path class="cls-3" d="M108.17,493.83A90.47,90.47,0,0,1,20.83,426.6c-9.21-34.67,2.19-70.26,29.73-92.88l1.1-.9V242l-1.45-.88A90.43,90.43,0,1,1,162.82,101.69l1.24,1.31L321.51,60.42l.6-1.21c.88-1.78,1.83-3.54,2.81-5.24a89.89,89.89,0,0,1,55-42A90.35,90.35,0,0,1,490.5,76.16a89.83,89.83,0,0,1-26.06,89.7l-1,.89V282.44l1.09.9a90.42,90.42,0,0,1-57.67,160.05,89.88,89.88,0,0,1-70.34-33.62l-1.23-1.52L186.58,448.47l-.62,1a90.46,90.46,0,0,1-77.79,44.31ZM226.26,359.11l92.16-24.92.41-1.75A90.79,90.79,0,0,1,378.88,267l2.07-.67V187.68ZM186.79,175.48l-.29,1.93a90.46,90.46,0,0,1-50.62,68.09l-1.71.81v72.56L288.35,148Z"/><path class="cls-4" d="M163.81,384.63a58.43,58.43,0,0,0-24.67-31.4l-6.09-3.79L345.88,113.57l3.71,8.56a58.46,58.46,0,0,0,27.07,28.74l7,3.56L167,394.48Z"/><path class="cls-5" d="M344.08,124.52a64.35,64.35,0,0,0,29.85,31.7L169.52,382.77a64.23,64.23,0,0,0-27.21-34.64L344.08,124.52m3.59-21.89-12.5,13.85L133.4,340.09l-9.61,10.66L136,358.32a52.39,52.39,0,0,1,22.14,28.18l6.44,19.69,13.88-15.38L382.84,164.26l10.49-11.62-13.94-7.11a52.44,52.44,0,0,1-24.3-25.79l-7.42-17.11Z"/><path class="cls-6" d="M434.72,301a58.51,58.51,0,0,0-27.7-7h-6l0-6V157.5l5.64-.34a58.95,58.95,0,0,0,27.75-8.91l9.2-5.79v163.3Z"/><path class="cls-5" d="M437.57,153.33V295.7A64.35,64.35,0,0,0,407,288h0V163.15a65,65,0,0,0,30.59-9.82m12-21.75-18.4,11.6a52.71,52.71,0,0,1-24.91,8l-11.28.68V300h12a52.49,52.49,0,0,1,24.89,6.31l17.7,9.55V131.58Z"/><path class="cls-7" d="M151.26,158.76a55.88,55.88,0,0,0-1.41-7.13,58.92,58.92,0,0,0-5.47-13.55l-3.75-6.71,205.5-55.58L343.18,86a57.87,57.87,0,0,0-1.86,23l.62,5.16L152.19,165.51Z"/><path class="cls-5" d="M337.41,84.37a63.86,63.86,0,0,0-2,25.39L157.21,157.94a64.35,64.35,0,0,0-7.59-22.78L337.41,84.37m17.44-17.15-20.57,5.56-187.8,50.79-14.84,4,7.5,13.42a52.37,52.37,0,0,1,6.18,18.56l1.85,13.52,13.17-3.56L338.5,121.34l10-2.71-1.24-10.3a51.74,51.74,0,0,1,1.66-20.64l5.91-20.47Z"/><polygon class="cls-8" points="161.65 131.9 232.15 112.83 281.06 99.61 287.45 122.72 161.32 156.83 122.58 222.51 116.33 232.32 116.33 328.47 142.31 348.13 292.54 181.64 329.78 205.16 169.52 382.77 142.31 354.02 112.28 338.38 113.72 225.56 161.65 131.9"/><path class="cls-9" d="M71.69,216.48,79.51,219a58.2,58.2,0,0,0,27.73,1.86l7-1.24v124.8h-6a59.32,59.32,0,0,0-15,2,58.51,58.51,0,0,0-12.76,5.06l-8.84,4.76Z"/><path class="cls-5" d="M77.69,224.69a64.25,64.25,0,0,0,30.59,2.05V338.39a64.62,64.62,0,0,0-30.59,7.74V224.69m-12-16.42V366.21l17.69-9.52a52.45,52.45,0,0,1,24.91-6.3h12V212.44l-14.08,2.48a52.15,52.15,0,0,1-24.87-1.67l-15.64-5Z"/><path class="cls-10" d="M162.84,423.79a57.84,57.84,0,0,0,3.83-23.55l-.22-4.81,181.91-49.2.19,7.63a58.62,58.62,0,0,0,1.94,13.55,59.21,59.21,0,0,0,2.66,7.75l2.66,6.33L158.59,434.82Z"/><path class="cls-5" d="M342.55,354a64.27,64.27,0,0,0,2.14,14.92,63.28,63.28,0,0,0,2.93,8.55L168.44,426a64.28,64.28,0,0,0,4.23-26L342.55,354m11.61-15.57-14.74,4L169.53,388.38l-9.29,2.51.44,9.62a51.88,51.88,0,0,1-3.44,21.12l-8.49,22.07,22.82-6.17,179.18-48.46L364,385.49l-5.33-12.66a52.12,52.12,0,0,1-2.39-7,52.71,52.71,0,0,1-1.74-12.16l-.39-15.26Z"/><circle class="cls-11" cx="403.19" cy="98.8" r="64.45"/><circle class="cls-12" cx="108.28" cy="402.85" r="64.45"/><circle class="cls-13" cx="97.19" cy="163.27" r="64.45"/><circle class="cls-14" cx="406.98" cy="352.41" r="64.45"/></svg>